GIL08_slow4_RRA_states
nRows=7
nColumns=47

# SIMM Motion File Header:
name GIL08_slow4_RRA_states
datacolumns 47
datarows 7
otherdata 1
range 0.53517000000000015000 0.53817000000000015000
endheader
time	pelvis_tx	pelvis_ty	pelvis_tz	pelvis_tilt	pelvis_list	pelvis_rotation	hip_flexion_r	hip_adduction_r	hip_rotation_r	knee_angle_r	ankle_angle_r	subtalar_angle_r	mtp_angle_r	hip_flexion_l	hip_adduction_l	hip_rotation_l	knee_angle_l	ankle_angle_l	subtalar_angle_l	mtp_angle_l	lumbar_extension	lumbar_bending	lumbar_rotation	pelvis_tx_u	pelvis_ty_u	pelvis_tz_u	pelvis_tilt_u	pelvis_list_u	pelvis_rotation_u	hip_flexion_r_u	hip_adduction_r_u	hip_rotation_r_u	knee_angle_r_u	ankle_angle_r_u	subtalar_angle_r_u	mtp_angle_r_u	hip_flexion_l_u	hip_adduction_l_u	hip_rotation_l_u	knee_angle_l_u	ankle_angle_l_u	subtalar_angle_l_u	mtp_angle_l_u	lumbar_extension_u	lumbar_bending_u	lumbar_rotation_u
      0.53517000000000015000	     -1.97229568358956840000	      0.96589622004975484000	      0.19156981377374324000	      3.89432057977260060000	     -1.34424729664688350000	      0.35618214635115553000	     13.05301845871185100000	      0.33156986960882961000	      3.65889205743907060000	    -24.56157612172063100000	     13.01602824296710500000	     -0.00000000000000485844	     -0.00000000000000718875	     -7.38197332182299700000	     -1.11300149626817200000	      6.64032828576180380000	     -5.80645548629973260000	      8.75331826783018130000	     -0.00000000000009423142	     -0.00000000000002316626	    -10.28976363760020300000	     -3.07105364197096580000	      5.14755155124324570000	      0.60457939406397998000	     -0.07145452419815827300	     -0.02418757436624281400	      1.90533085771959470000	    -12.06913474073966200000	      9.90283572178122280000	     57.90348695890632800000	     17.21673365768444000000	    -29.63103090080570100000	    118.68413535132956000000	    -58.44692798753639100000	      0.00000000000000096087	     -0.00000000000005536855	    -38.73021735938486600000	    -13.82924599327287800000	     24.76026792029788800000	     -5.45340964094464910000	     38.54216259992217900000	     -0.00000000000056255153	      0.00000000000017031335	     -6.05894249464457070000	     17.64942859703995400000	     -3.72847066883372860000
      0.53567000000000020000	     -1.97199332705037020000	      0.96586043697455193000	      0.19155773218004035000	      3.89528685058979550000	     -1.35027718745333190000	      0.36114727195078389000	     13.08192178757971100000	      0.34017157912547263000	      3.64408812071884650000	    -24.50223118302203700000	     12.98666536184541300000	     -0.00000000000000485783	     -0.00000000000000721618	     -7.40135011474085940000	     -1.11991668437168150000	      6.65273342498366920000	     -5.80919115838998490000	      8.77259122485937580000	     -0.00000000000009451585	     -0.00000000000002306966	    -10.29280433042760200000	     -3.06222809266175490000	      5.14566972969987370000	      0.60484693125295119000	     -0.07167749772844447800	     -0.02413936228661271000	      1.95993218579835830000	    -12.05030546389002800000	      9.95780164786710030000	     57.70954893512968200000	     17.18984247425788300000	    -29.58454161461300200000	    118.69548623560192000000	    -59.00432697515621800000	      0.00000000000000160090	     -0.00000000000005511655	    -38.77715405823001000000	    -13.83138478027136700000	     24.85980012631595000000	     -5.48928364417105730000	     38.54985393291760000000	     -0.00000000000057588449	      0.00000000000018183303	     -6.10403971914650880000	     17.65276191823902600000	     -3.79909162729840450000
      0.53617000000000015000	     -1.97169083648472210000	      0.96582454283467445000	      0.19154567385026877000	      3.89628069166767070000	     -1.35629747700093680000	      0.36614007943621074000	     13.11072772643370500000	      0.34875944761739380000	      3.62930769448445160000	    -24.44288076598054000000	     12.95702418935774100000	     -0.00000000000000485702	     -0.00000000000000724363	     -7.42075067738433080000	     -1.12683275780717640000	      6.66518758630290980000	     -5.81194476853484600000	      8.79186818798233990000	     -0.00000000000009480841	     -0.00000000000002296695	    -10.29586788648313200000	     -3.05340088800714950000	      5.14375218255963240000	      0.60511550967408334000	     -0.07189877509567907400	     -0.02409451742106433200	      2.01561170387851400000	    -12.03072555539580100000	     10.01355614655710000000	     57.51392386218481800000	     17.16136453588887900000	    -29.53698043312671500000	    118.70605413850701000000	    -59.56008508566605300000	      0.00000000000000177410	     -0.00000000000005479862	    -38.82529971348152700000	    -13.83278411393706300000	     24.95633477654770600000	     -5.52514919563415940000	     38.55794305854627200000	     -0.00000000000058705919	      0.00000000000024485929	     -6.15039187448540140000	     17.65604751690219100000	     -3.87137485337181000000
      0.53667000000000020000	     -1.97138821136304430000	      0.96578853848294444000	      0.19153363709957075000	      3.89730264070206590000	     -1.36230778716749490000	      0.37116095706217811000	     13.13943543024922000000	      0.35733267778851169000	      3.61455132334479770000	    -24.38352525715815800000	     12.92710555628433700000	     -0.00000000000000485620	     -0.00000000000000727100	     -7.44017561565810310000	     -1.13374934398449770000	      6.67768925609401180000	     -5.81471630508801860000	      8.81114923531204400000	     -0.00000000000009510316	     -0.00000000000002283910	    -10.29895492841977300000	     -3.04457205241859660000	      5.14179807613759010000	      0.60538515367406376000	     -0.07211835126660315300	     -0.02405305091246333300	      2.07236160363047880000	    -12.01039062327198100000	     10.07008436692900800000	     57.31661187444046100000	     17.13129139193582500000	    -29.48832095818158900000	    118.71585238043404000000	    -60.11416536137456700000	      0.00000000000000115978	     -0.00000000000005365959	    -38.87465252945239800000	    -13.83343643119942900000	     25.04984736988337000000	     -5.56099975208818890000	     38.56643700300360000000	     -0.00000000000058850489	      0.00000000000029854801	     -6.19798067835974020000	     17.65928947035260100000	     -3.94533024515976250000
      0.53717000000000015000	     -1.97108545114957570000	      0.96575242476762546000	      0.19152162023467373000	      3.89835323023119780000	     -1.36830774115583180000	      0.37621029028475139000	     13.16804405730744400000	      0.36589047188619467000	      3.59981956074993640000	    -24.32416503956162000000	     12.89691030980203500000	     -0.00000000000000485560	     -0.00000000000000729767	     -7.45962553062682070000	     -1.14066606862619420000	      6.69023692583970140000	     -5.81750576458228700000	      8.83043469113509790000	     -0.00000000000009539580	     -0.00000000000002268196	    -10.30206607011201900000	     -3.03574160509246790000	      5.13980657236926320000	      0.60565588617817379000	     -0.07233622186025907800	     -0.02401497257740916100	      2.13017319498474090000	    -11.98929691017344500000	     10.12737142400091800000	     57.11761411654113400000	     17.09961555237357800000	    -29.43853820917977900000	    118.72489484709378000000	    -60.66653012578124300000	      0.00000000000000050654	     -0.00000000000005360841	    -38.92520955925273500000	    -13.83333507146642000000	     25.14031292761222100000	     -5.59682808291783470000	     38.57532832765495100000	     -0.00000000000057312565	      0.00000000000031589958	     -6.24678713095953690000	     17.66249209386715100000	     -4.02096523328871490000
      0.53767000000000020000	     -1.97078255529157920000	      0.96571620254601509000	      0.19150962156057613000	      3.89943298940798580000	     -1.37429695698851350000	      0.38128845253448596000	     13.19655276354008700000	      0.37443202497319400000	      3.58511297649711570000	    -24.26480048594122600000	     12.86643931822954200000	     -0.00000000000000485523	     -0.00000000000000732460	     -7.47910102541737580000	     -1.14758255230129080000	      6.70282905736650840000	     -5.82031312844955820000	      8.84972463094119280000	     -0.00000000000009568411	     -0.00000000000002251099	    -10.30520191533965000000	     -3.02690956614189900000	      5.13777682967241760000	      0.60592773006865719000	     -0.07255238260568397400	     -0.02398029280297954400	      2.18903778058308210000	    -11.96744068788554900000	     10.18540270166698900000	     56.91693165009768800000	     17.06632954218977400000	    -29.38760735489235300000	    118.73319552140482000000	    -61.21714178119561500000	      0.00000000000000110134	     -0.00000000000005401260	    -38.97696772436751900000	    -13.83247317595751700000	     25.22770850304634700000	     -5.63262807600470520000	     38.58462391925257200000	     -0.00000000000057844079	      0.00000000000038591039	     -6.29679225635208970000	     17.66565981184534800000	     -4.09828752079578340000
      0.53817000000000015000	     -1.97047952323064470000	      0.96567987267055133000	      0.19149763937394379000	      3.90054244192481910000	     -1.38027505423766890000	      0.38639581459225397000	     13.22496070847994600000	      0.38295653197256535000	      3.57043214866159040000	    -24.20543196524733900000	     12.83569346648247500000	     -0.00000000000000485506	     -0.00000000000000735117	     -7.49860269784432720000	     -1.15449841405367490000	      6.71546411877832750000	     -5.82313838680315850000	      8.86901938106238670000	     -0.00000000000009596499	     -0.00000000000002234728	    -10.30836305887334300000	     -3.01807595032210060000	      5.13570800274471130000	      0.60620070680072879000	     -0.07276682989427781000	     -0.02394902065950274200	      2.24894577451239640000	    -11.94481886053253900000	     10.24416355901823600000	     56.71456655570605700000	     17.03142684431021800000	    -29.33550497267803100000	    118.74076894886478000000	    -61.76596199474352000000	      0.00000000000000018034	     -0.00000000000005323287	    -39.02992278175460700000	    -13.83084478754772200000	     25.31201066251768900000	     -5.66839294026469440000	     38.59431604528250400000	     -0.00000000000054213406	      0.00000000000024798074	     -6.34797635465857370000	     17.66879728512359900000	     -4.17730235127987020000
